<svg width="394" height="342" viewBox="0 0 394 342" fill="none" xmlns="http://www.w3.org/2000/svg">
<path d="M0 20C0 8.95431 8.95431 0 20 0H276.873C283.792 0 290.219 3.57556 293.867 9.45399L386.993 159.515C390.982 165.943 391.003 174.07 387.048 180.518L293.853 332.457C290.217 338.386 283.761 342 276.805 342H20C8.9543 342 0 333.046 0 322V20Z" fill="#021373"/>
<path d="M62.3257 55H58.7979V46.5527C58.7979 45.9831 58.8019 45.5314 58.8101 45.1978C58.8182 44.8641 58.8752 43.4725 58.981 41.0229H58.8711L54.269 55H50.8022L46.5054 40.9985H46.3955C46.5501 43.7736 46.6274 45.6738 46.6274 46.6992V55H43.2461V37.1533H48.3975L52.6211 50.8008H52.6943L57.1743 37.1533H62.3257V55ZM66.9033 42.3047C68.4821 41.4827 70.2114 41.0718 72.0913 41.0718C73.9712 41.0718 75.3913 41.4746 76.3516 42.2803C77.32 43.0859 77.8042 44.2944 77.8042 45.9058V55H75.2041L74.4839 53.1445H74.3862C73.7596 53.9421 73.1167 54.4914 72.4575 54.7925C71.7983 55.0936 70.9316 55.2441 69.8574 55.2441C68.5553 55.2441 67.5218 54.8698 66.7568 54.1211C66.0081 53.3724 65.6338 52.2941 65.6338 50.8862C65.6338 49.4784 66.1343 48.4285 67.1353 47.7368C68.1362 47.0369 69.6702 46.6504 71.7373 46.5771L74.1055 46.5039V45.9058C74.1055 44.5223 73.3975 43.8306 71.9814 43.8306C70.891 43.8306 69.6092 44.1602 68.1362 44.8193L66.9033 42.3047ZM69.4546 50.9473C69.4546 51.9971 70.0568 52.522 71.2612 52.522C72.132 52.522 72.8237 52.2738 73.3364 51.7773C73.8491 51.2809 74.1055 50.6217 74.1055 49.7998V48.6768L72.665 48.7256C71.5827 48.7581 70.777 48.9535 70.248 49.3115C69.7191 49.6696 69.4546 50.2148 69.4546 50.9473ZM85.7754 41.3525H89.5962V44.1479H85.7754V50.7275C85.7754 51.2402 85.9178 51.6268 86.2026 51.8872C86.4956 52.1476 86.9269 52.2778 87.4966 52.2778C88.0662 52.2778 88.8149 52.1354 89.7427 51.8506V54.6216C88.8149 55.0366 87.6431 55.2441 86.2271 55.2441C84.8192 55.2441 83.7694 54.8739 83.0776 54.1333C82.394 53.3846 82.0522 52.2493 82.0522 50.7275V44.1479H80.27V42.5732L82.3208 41.3281L83.395 38.4473H85.7754V41.3525ZM103.488 54.2798C102.235 54.9227 100.635 55.2441 98.6904 55.2441C96.4932 55.2441 94.776 54.6379 93.5391 53.4253C92.3021 52.2127 91.6836 50.4793 91.6836 48.2251C91.6836 45.9709 92.2533 44.2253 93.3926 42.9883C94.5319 41.7269 96.0903 41.0962 98.0679 41.0962C100.045 41.0962 101.567 41.6455 102.633 42.7441C103.716 43.8346 104.257 45.3524 104.257 47.2974V49.104H95.4556C95.4963 50.1701 95.8096 51.0002 96.3955 51.5942C96.9896 52.1802 97.8115 52.4731 98.8613 52.4731C100.408 52.4731 101.95 52.1151 103.488 51.3989V54.2798ZM100.766 46.626C100.749 45.7145 100.509 45.0065 100.045 44.502C99.5897 43.9974 98.9671 43.7451 98.1777 43.7451C97.3883 43.7451 96.7658 43.9933 96.3101 44.4897C95.8625 44.9862 95.6061 45.6982 95.541 46.626H100.766ZM114.901 41.0962C115.414 41.0962 115.833 41.1328 116.159 41.2061L115.878 44.6973C115.585 44.6159 115.219 44.5752 114.779 44.5752C113.591 44.5752 112.663 44.8804 111.996 45.4907C111.337 46.1011 111.007 46.9556 111.007 48.0542V55H107.284V41.3525H110.104L110.653 43.6475H110.836C111.276 42.8662 111.846 42.2518 112.545 41.8042C113.262 41.3322 114.047 41.0962 114.901 41.0962ZM118.478 37.8369C118.478 36.6162 119.153 36.0059 120.504 36.0059C121.855 36.0059 122.531 36.6121 122.531 37.8247C122.531 38.4106 122.36 38.8623 122.018 39.1797C121.676 39.4971 121.172 39.6558 120.504 39.6558C119.153 39.6558 118.478 39.0495 118.478 37.8369ZM122.36 55H118.637V41.3525H122.36V55ZM126.645 42.3047C128.223 41.4827 129.953 41.0718 131.833 41.0718C133.712 41.0718 135.132 41.4746 136.093 42.2803C137.061 43.0859 137.545 44.2944 137.545 45.9058V55H134.945L134.225 53.1445H134.127C133.501 53.9421 132.858 54.4914 132.199 54.7925C131.54 55.0936 130.673 55.2441 129.599 55.2441C128.297 55.2441 127.263 54.8698 126.498 54.1211C125.749 53.3724 125.375 52.2941 125.375 50.8862C125.375 49.4784 125.875 48.4285 126.876 47.7368C127.877 47.0369 129.411 46.6504 131.479 46.5771L133.847 46.5039V45.9058C133.847 44.5223 133.139 43.8306 131.723 43.8306C130.632 43.8306 129.35 44.1602 127.877 44.8193L126.645 42.3047ZM129.196 50.9473C129.196 51.9971 129.798 52.522 131.002 52.522C131.873 52.522 132.565 52.2738 133.078 51.7773C133.59 51.2809 133.847 50.6217 133.847 49.7998V48.6768L132.406 48.7256C131.324 48.7581 130.518 48.9535 129.989 49.3115C129.46 49.6696 129.196 50.2148 129.196 50.9473ZM145.211 52.522C146.562 52.522 147.238 52.1313 147.238 51.3501C147.238 50.9513 147.059 50.634 146.701 50.3979C146.351 50.1619 145.545 49.7632 144.284 49.2017C143.234 48.7622 142.461 48.3553 141.964 47.981C141.476 47.6066 141.118 47.1794 140.89 46.6992C140.67 46.2109 140.561 45.6128 140.561 44.9048C140.561 43.6922 141.028 42.7563 141.964 42.0972C142.908 41.4299 144.227 41.0962 145.919 41.0962C147.612 41.0962 149.228 41.4543 150.766 42.1704L149.643 44.856C148.853 44.5223 148.174 44.2741 147.604 44.1113C147.042 43.9404 146.477 43.855 145.907 43.855C144.809 43.855 144.259 44.152 144.259 44.7461C144.259 45.0798 144.438 45.3727 144.796 45.625C145.154 45.8691 145.895 46.215 147.018 46.6626C148.149 47.1102 148.963 47.5252 149.459 47.9077C150.428 48.6401 150.912 49.6818 150.912 51.0327C150.912 52.3836 150.424 53.4253 149.447 54.1577C148.471 54.882 147.059 55.2441 145.211 55.2441C143.364 55.2441 141.818 54.9797 140.573 54.4507V51.3745C141.273 51.7 142.054 51.9727 142.917 52.1924C143.787 52.4121 144.552 52.522 145.211 52.522ZM160.604 37.1533H166.208C169.121 37.1533 171.383 37.9224 172.995 39.4604C174.606 40.9985 175.412 43.147 175.412 45.9058C175.412 48.8436 174.573 51.0938 172.897 52.6562C171.229 54.2188 168.816 55 165.658 55H160.604V37.1533ZM164.389 40.2539V51.875H166.012C169.658 51.875 171.481 49.9178 171.481 46.0034C171.481 42.1704 169.788 40.2539 166.403 40.2539H164.389ZM178.659 37.8369C178.659 36.6162 179.334 36.0059 180.685 36.0059C182.036 36.0059 182.711 36.6121 182.711 37.8247C182.711 38.4106 182.541 38.8623 182.199 39.1797C181.857 39.4971 181.352 39.6558 180.685 39.6558C179.334 39.6558 178.659 39.0495 178.659 37.8369ZM182.541 55H178.817V41.3525H182.541V55ZM198.385 55H195.529L194.809 53.23H194.65C193.812 54.5728 192.522 55.2441 190.78 55.2441C189.169 55.2441 187.908 54.6257 186.996 53.3887C186.085 52.1436 185.629 50.4102 185.629 48.1885C185.629 45.9587 186.093 44.2212 187.021 42.9761C187.956 41.7228 189.263 41.0962 190.939 41.0962C192.615 41.0962 193.905 41.7676 194.809 43.1104H194.931C194.743 42.0605 194.65 41.1491 194.65 40.376V36.0059H198.385V55ZM194.906 48.2251C194.906 46.7684 194.678 45.7227 194.223 45.0879C193.767 44.445 193.035 44.1235 192.025 44.1235C191.187 44.1235 190.54 44.4775 190.084 45.1855C189.629 45.8936 189.401 46.9149 189.401 48.2495C189.401 49.576 189.629 50.5811 190.084 51.2646C190.548 51.9401 191.236 52.2778 192.147 52.2778C193.059 52.2778 193.738 52.0052 194.186 51.46C194.634 50.9066 194.874 49.9626 194.906 48.6279V48.2251ZM212.753 35.8472V36.1035C212.338 36.5186 211.622 37.1411 210.604 37.9712C209.587 38.8013 208.782 39.4279 208.188 39.8511H205.709V39.5215C207.077 37.9346 208.033 36.7098 208.578 35.8472H212.753ZM202.646 42.3047C204.224 41.4827 205.954 41.0718 207.833 41.0718C209.713 41.0718 211.133 41.4746 212.094 42.2803C213.062 43.0859 213.546 44.2944 213.546 45.9058V55H210.946L210.226 53.1445H210.128C209.502 53.9339 208.855 54.4832 208.188 54.7925C207.528 55.0936 206.666 55.2441 205.6 55.2441C204.273 55.2441 203.236 54.8698 202.487 54.1211C201.746 53.3643 201.376 52.286 201.376 50.8862C201.376 49.4784 201.876 48.4285 202.877 47.7368C203.878 47.0369 205.412 46.6504 207.479 46.5771L209.848 46.5039V45.9058C209.848 44.5223 209.14 43.8306 207.724 43.8306C206.633 43.8306 205.351 44.1602 203.878 44.8193L202.646 42.3047ZM205.197 50.9473C205.197 51.9971 205.799 52.522 207.003 52.522C207.866 52.522 208.554 52.2738 209.066 51.7773C209.587 51.2809 209.848 50.6217 209.848 49.7998V48.6768L208.407 48.7256C207.325 48.7581 206.519 48.9535 205.99 49.3115C205.461 49.6696 205.197 50.2148 205.197 50.9473ZM221.518 41.3525H225.338V44.1479H221.518V50.7275C221.518 51.2402 221.66 51.6268 221.945 51.8872C222.238 52.1476 222.669 52.2778 223.239 52.2778C223.808 52.2778 224.557 52.1354 225.485 51.8506V54.6216C224.557 55.0366 223.385 55.2441 221.969 55.2441C220.561 55.2441 219.512 54.8739 218.82 54.1333C218.136 53.3846 217.794 52.2493 217.794 50.7275V44.1479H216.012V42.5732L218.063 41.3281L219.137 38.4473H221.518V41.3525ZM228.097 37.8369C228.097 36.6162 228.773 36.0059 230.124 36.0059C231.474 36.0059 232.15 36.6121 232.15 37.8247C232.15 38.4106 231.979 38.8623 231.637 39.1797C231.295 39.4971 230.791 39.6558 230.124 39.6558C228.773 39.6558 228.097 39.0495 228.097 37.8369ZM231.979 55H228.256V41.3525H231.979V55ZM241.439 55.2441C237.191 55.2441 235.067 52.9126 235.067 48.2495C235.067 45.9383 235.645 44.1683 236.801 42.9395C237.956 41.7106 239.612 41.0962 241.769 41.0962C243.356 41.0962 244.768 41.4054 246.005 42.0239L244.918 44.9048C243.6 44.3677 242.55 44.0991 241.769 44.0991C239.832 44.0991 238.864 45.4541 238.864 48.1641C238.864 50.874 239.832 52.229 241.769 52.229C243.136 52.229 244.41 51.8343 245.59 51.0449V54.231C244.955 54.6379 244.345 54.9023 243.759 55.0244C243.148 55.1709 242.375 55.2441 241.439 55.2441ZM254.684 41.0962C255.937 41.0962 257.056 41.381 258.041 41.9507C259.034 42.5122 259.799 43.326 260.336 44.3921C260.881 45.45 261.154 46.6626 261.154 48.0298C261.154 48.0705 261.154 48.1112 261.154 48.1519C261.154 50.3735 260.568 52.111 259.396 53.3643C258.224 54.6175 256.592 55.2441 254.501 55.2441C254.468 55.2441 254.432 55.2441 254.391 55.2441C253.138 55.2441 252.015 54.9593 251.022 54.3896C250.037 53.8118 249.272 52.9899 248.727 51.9238C248.19 50.8577 247.921 49.6411 247.921 48.2739C247.921 48.2332 247.921 48.1925 247.921 48.1519C247.921 45.922 248.503 44.1927 249.667 42.9639C250.831 41.7188 252.466 41.0962 254.574 41.0962C254.607 41.0962 254.643 41.0962 254.684 41.0962ZM256.674 45.1001C256.226 44.4328 255.51 44.0991 254.525 44.0991C253.541 44.0991 252.825 44.4287 252.377 45.0879C251.938 45.7471 251.718 46.7684 251.718 48.1519C251.718 49.5272 251.942 50.5566 252.389 51.2402C252.845 51.9157 253.561 52.2534 254.538 52.2534C255.522 52.2534 256.234 51.9157 256.674 51.2402C257.121 50.5648 257.345 49.5394 257.345 48.1641C257.345 46.7806 257.121 45.7593 256.674 45.1001ZM268.063 52.522C269.414 52.522 270.089 52.1313 270.089 51.3501C270.089 50.9513 269.91 50.634 269.552 50.3979C269.202 50.1619 268.397 49.7632 267.135 49.2017C266.085 48.7622 265.312 48.3553 264.816 47.981C264.328 47.6066 263.97 47.1794 263.742 46.6992C263.522 46.2109 263.412 45.6128 263.412 44.9048C263.412 43.6922 263.88 42.7563 264.816 42.0972C265.76 41.4299 267.078 41.0962 268.771 41.0962C270.464 41.0962 272.079 41.4543 273.617 42.1704L272.494 44.856C271.705 44.5223 271.025 44.2741 270.456 44.1113C269.894 43.9404 269.328 43.855 268.759 43.855C267.66 43.855 267.111 44.152 267.111 44.7461C267.111 45.0798 267.29 45.3727 267.648 45.625C268.006 45.8691 268.747 46.215 269.87 46.6626C271.001 47.1102 271.815 47.5252 272.311 47.9077C273.279 48.6401 273.764 49.6818 273.764 51.0327C273.764 52.3836 273.275 53.4253 272.299 54.1577C271.322 54.882 269.91 55.2441 268.063 55.2441C266.216 55.2441 264.669 54.9797 263.424 54.4507V51.3745C264.124 51.7 264.905 51.9727 265.768 52.1924C266.639 52.4121 267.404 52.522 268.063 52.522Z" fill="white"/>
<path d="M142.9 199.5C140.5 199.5 137.9 199.3 135.1 198.9C132.367 198.5 129.667 197.967 127 197.3C124.4 196.633 122.067 195.867 120 195C121.2 191.333 122.8 187.8 124.8 184.4C133.333 188.8 139.833 191 144.3 191C148.9 191 152.667 189.1 155.6 185.3C158.533 181.433 160.367 176.133 161.1 169.4C158.167 170.667 155.067 171.633 151.8 172.3C148.533 172.967 145.367 173.3 142.3 173.3C137.233 173.3 132.8 172.367 129 170.5C125.2 168.633 122.233 166.033 120.1 162.7C118.033 159.3 117 155.367 117 150.9C117 147.033 117.767 143.4 119.3 140C120.833 136.533 122.933 133.5 125.6 130.9C128.333 128.3 131.467 126.267 135 124.8C138.6 123.267 142.433 122.5 146.5 122.5C151.033 122.5 155.2 123.467 159 125.4C162.867 127.267 166.2 129.933 169 133.4C171.867 136.8 174.067 140.833 175.6 145.5C177.2 150.1 178 155.133 178 160.6C178 168.2 176.5 174.933 173.5 180.8C170.5 186.6 166.367 191.167 161.1 194.5C155.833 197.833 149.767 199.5 142.9 199.5ZM131 144.9C131 147.3 131.533 149.633 132.6 151.9C133.733 154.1 135.233 156.1 137.1 157.9C138.967 159.7 141.033 161.133 143.3 162.2C145.633 163.267 148.033 163.8 150.5 163.8C154.5 163.8 158.133 162.567 161.4 160.1C161.2 154.367 160.333 149.333 158.8 145C157.267 140.6 155.233 137.167 152.7 134.7C150.167 132.233 147.3 131 144.1 131C141.767 131 139.6 131.633 137.6 132.9C135.6 134.167 134 135.867 132.8 138C131.6 140.067 131 142.367 131 144.9ZM204.392 157.3C200.992 157.3 197.892 156.5 195.092 154.9C192.359 153.3 190.159 151.133 188.492 148.4C186.892 145.667 186.092 142.633 186.092 139.3C186.092 135.767 186.959 132.567 188.692 129.7C190.426 126.833 192.759 124.567 195.692 122.9C198.626 121.167 201.859 120.3 205.392 120.3C208.859 120.3 211.959 121.1 214.692 122.7C217.492 124.3 219.692 126.467 221.292 129.2C222.959 131.867 223.792 134.9 223.792 138.3C223.792 141.767 222.892 144.967 221.092 147.9C219.359 150.767 217.026 153.067 214.092 154.8C211.159 156.467 207.926 157.3 204.392 157.3ZM206.292 152.1C208.626 152.1 210.426 151.1 211.692 149.1C212.959 147.1 213.592 144.367 213.592 140.9C213.592 136.5 212.626 132.833 210.692 129.9C208.826 126.967 206.426 125.5 203.492 125.5C201.226 125.5 199.426 126.5 198.092 128.5C196.826 130.433 196.192 133.167 196.192 136.7C196.192 141.1 197.159 144.767 199.092 147.7C201.026 150.633 203.426 152.1 206.292 152.1Z" fill="white"/>
<path d="M131.135 250.654C132.372 251.2 133.402 251.582 134.224 251.802C135.054 252.013 135.847 252.119 136.604 252.119C137.369 252.119 137.971 251.96 138.411 251.643C138.85 251.326 139.07 250.854 139.07 250.227C139.07 249.877 138.976 249.572 138.789 249.312C138.602 249.043 138.313 248.778 137.922 248.518C137.54 248.25 136.783 247.851 135.652 247.322C134.521 246.785 133.687 246.284 133.149 245.82C131.953 244.787 131.355 243.493 131.355 241.938C131.355 240.384 131.888 239.155 132.954 238.252C134.028 237.349 135.509 236.897 137.397 236.897C138.984 236.897 140.75 237.316 142.695 238.154L141.475 241.096C140.555 240.722 139.778 240.453 139.143 240.291C138.508 240.128 137.861 240.046 137.202 240.046C136.551 240.046 136.03 240.213 135.64 240.547C135.249 240.872 135.054 241.308 135.054 241.853C135.054 242.187 135.127 242.48 135.273 242.732C135.428 242.976 135.672 243.216 136.006 243.452C136.348 243.68 137.153 244.095 138.423 244.697C140.083 245.487 141.222 246.288 141.841 247.102C142.467 247.883 142.781 248.864 142.781 250.044C142.781 251.639 142.199 252.913 141.035 253.865C139.871 254.784 138.297 255.244 136.311 255.244C134.325 255.244 132.6 254.886 131.135 254.17V250.654ZM156.27 235.847V236.104C155.854 236.519 155.138 237.141 154.121 237.971C153.104 238.801 152.298 239.428 151.704 239.851H149.226V239.521C150.593 237.935 151.549 236.71 152.095 235.847H156.27ZM151.899 255.244C149.694 255.244 147.973 254.638 146.736 253.425C145.507 252.205 144.893 250.471 144.893 248.225C144.893 245.979 145.462 244.229 146.602 242.976C147.741 241.723 149.295 241.096 151.265 241.096C153.242 241.096 154.768 241.646 155.842 242.744C156.925 243.843 157.466 245.361 157.466 247.297V249.104H148.665C148.705 250.17 149.019 251 149.604 251.594C150.199 252.18 151.021 252.473 152.07 252.473C153.617 252.473 155.159 252.115 156.697 251.399V254.28C156.021 254.613 155.313 254.858 154.573 255.012C153.832 255.167 152.941 255.244 151.899 255.244ZM153.975 246.626C153.958 245.715 153.718 245.007 153.254 244.502C152.799 243.997 152.176 243.745 151.387 243.745C150.597 243.745 149.975 243.993 149.519 244.49C149.071 244.986 148.815 245.698 148.75 246.626H153.975ZM168.11 241.096C168.623 241.096 169.042 241.133 169.368 241.206L169.087 244.697C168.794 244.616 168.428 244.575 167.988 244.575C166.8 244.575 165.872 244.88 165.205 245.491C164.546 246.101 164.216 246.956 164.216 248.054V255H160.493V241.353H163.313L163.862 243.647H164.045C164.485 242.866 165.055 242.252 165.754 241.804C166.471 241.332 167.256 241.096 168.11 241.096ZM171.687 237.837C171.687 236.616 172.362 236.006 173.713 236.006C175.064 236.006 175.74 236.612 175.74 237.825C175.74 238.411 175.569 238.862 175.227 239.18C174.885 239.497 174.381 239.656 173.713 239.656C172.362 239.656 171.687 239.049 171.687 237.837ZM175.569 255H171.846V241.353H175.569V255ZM190.461 254.28C189.208 254.923 187.609 255.244 185.664 255.244C183.467 255.244 181.75 254.638 180.513 253.425C179.276 252.213 178.657 250.479 178.657 248.225C178.657 245.971 179.227 244.225 180.366 242.988C181.506 241.727 183.064 241.096 185.042 241.096C187.019 241.096 188.541 241.646 189.607 242.744C190.689 243.835 191.23 245.352 191.23 247.297V249.104H182.429C182.47 250.17 182.783 251 183.369 251.594C183.963 252.18 184.785 252.473 185.835 252.473C187.381 252.473 188.923 252.115 190.461 251.399V254.28ZM187.739 246.626C187.723 245.715 187.483 245.007 187.019 244.502C186.563 243.997 185.941 243.745 185.151 243.745C184.362 243.745 183.739 243.993 183.284 244.49C182.836 244.986 182.58 245.698 182.515 246.626H187.739Z" fill="white"/>
</svg>
