<?xml version="1.0" encoding="UTF-8"?>
<!DOCTYPE svg PUBLIC "-//W3C//DTD SVG 1.1//EN" "http://www.w3.org/Graphics/SVG/1.1/DTD/svg11.dtd">
<!-- Creator: CorelDRAW 2020 (64 Bit) -->
<svg xmlns="http://www.w3.org/2000/svg" xml:space="preserve" width="91.44mm" height="91.44mm" version="1.1" style="shape-rendering:geometricPrecision; text-rendering:geometricPrecision; image-rendering:optimizeQuality; fill-rule:evenodd; clip-rule:evenodd"
viewBox="0 0 9144 9144"
 xmlns:xlink="http://www.w3.org/1999/xlink"
 xmlns:xodm="http://www.corel.com/coreldraw/odm/2003">
 <defs>
  <style type="text/css">
   <![CDATA[
    .fil4 {fill:none}
    .fil1 {fill:#0023AD}
    .fil2 {fill:#031373}
    .fil3 {fill:#FFE43F}
    .fil5 {fill:#FEFEFE;fill-rule:nonzero}
    .fil6 {fill:#FFE43F;fill-rule:nonzero}
    .fil0 {fill:#FEFEFE;fill-opacity:0.058824}
   ]]>
  </style>
    <clipPath id="id0">
     <path d="M917.34 3599.3l1776.92 0c116.42,0 211.66,95.24 211.66,211.66l0 930.26c0,465.67 -380.99,846.66 -846.66,846.66l-930.26 0c-116.42,0 -211.66,-95.24 -211.66,-211.66l0 -1776.92z"/>
    </clipPath>
 </defs>
 <g id="Camada_x0020_1">
  <metadata id="CorelCorpID_0Corel-Layer"/>
  <g id="_2248856874048">
   <path class="fil0" d="M890.16 3572.12l1804.1 0c131.42,0 238.84,107.42 238.84,238.84l0 930.26c0,480.67 -393.17,873.84 -873.84,873.84l-930.26 0c-131.42,0 -238.84,-107.42 -238.84,-238.84l0 -1804.1z"/>
   <path class="fil1" d="M917.34 3599.3l1776.92 0c116.42,0 211.66,95.24 211.66,211.66l0 930.26c0,465.67 -380.99,846.66 -846.66,846.66l-930.26 0c-116.42,0 -211.66,-95.24 -211.66,-211.66l0 -1776.92z"/>
   <g style="clip-path:url(#id0)">
    <g>
     <rect class="fil2" x="585.32" y="3012.54" width="2915.5" height="1581.04"/>
     <rect class="fil3" x="568.39" y="4305.71" width="1343.23" height="1698.23"/>
    </g>
   </g>
   <path class="fil4" d="M917.34 3599.3l1776.92 0c116.42,0 211.66,95.24 211.66,211.66l0 930.26c0,465.67 -380.99,846.66 -846.66,846.66l-930.26 0c-116.42,0 -211.66,-95.24 -211.66,-211.66l0 -1776.92z"/>
   <g>
    <path class="fil5" d="M7082.89 3667.37c0,0 0.15,16.12 0.15,16.41 -1.37,13.22 -28.33,15.48 -56.97,15.55 -30.36,0.15 -47.3,-4.59 -47.3,-15.98 0,-12.3 45.6,-15.63 73.48,-16.19l0 -100.15 -73.48 1.63c-57.45,4.03 -153.7,26.73 -153.7,114.71 0,108.7 140.61,118.53 192.05,115.49 136.15,-8.06 137.39,-85.79 135.85,-99.43 0,0 0.78,-13.09 2,-16.06 4.92,-11.95 20.64,-16.34 54.53,-15.98 34.34,0.28 47.58,4.81 47.58,15.98 0,12.02 -45.27,15.77 -74.24,16.9l0 109.55c0,0 227.94,8.77 227.94,-126.45 0,-39.75 -33.73,-127.23 -182.34,-127.23 -175.58,0 -144.31,95.48 -145.55,111.25l0 0z"/>
    <path class="fil5" d="M3579.77 4173.44c-2.35,79.49 -13.55,138.2 -66.12,138.2 -62.51,0 -66.66,-82.56 -66.66,-184.27 0,-141.63 13.73,-184.27 66.66,-184.27 46.43,0 62.69,33.24 65.94,138.02l308.21 -92.31c-11.57,-76.06 -96.66,-260.69 -374.15,-260.69 -299.71,0 -414.97,190.05 -414.97,399.25 0,291.04 197.1,399.08 414.97,399.08 205.95,0 389.32,-99.55 387.69,-352.83l-321.75 0 0.18 -0.18z"/>
    <path class="fil5" d="M4299.69 3839.76c-244.43,0 -343.61,159.52 -343.61,343.44 0,184.09 99.18,343.61 343.61,343.61 244.43,0 343.43,-159.52 343.43,-343.61 0,-183.92 -99,-343.44 -343.43,-343.44zm0 396.19c-36.31,0 -54.2,-25.29 -54.2,-52.75 0,-27.28 17.89,-52.58 54.2,-52.58 36.31,0 54.02,25.3 54.02,52.58 0,27.46 -17.71,52.75 -54.02,52.75z"/>
    <path class="fil5" d="M5172.09 3838.86c-99.54,7.77 -171.26,78.77 -171.26,181.2l0 -175.6 -303.33 0 0 666.45 303.33 0 0 -369.45c0.9,-26.37 18.78,-50.22 40.64,-50.22 27.64,0 39.75,30.53 39.75,91.23l0 328.44 303.32 0c0,0 0.73,-251.84 0.73,-326.09 0,-160.78 -24.21,-360.77 -213.18,-345.96l0 0z"/>
    <path class="fil5" d="M5792.83 4325.37c-41.55,-9.21 -87.26,-42.45 -96.65,-99.9 12.28,13.91 68.47,48.42 125.56,48.42 155.18,0 228.71,-80.22 228.71,-185 0,-181.92 -147.24,-249.13 -269.72,-249.13 -244.44,0 -341.81,159.52 -341.81,343.62 0,184.09 119.6,343.43 364.03,343.43 86.89,0 171.62,-18.07 246.6,-67.75l0.9 -211.55c-79.31,75.15 -201.62,90.15 -257.62,77.86l0 0zm-38.66 -283.27c35.23,0 52.93,23.85 54.02,50.22l0 4.52c-1.09,26.56 -18.79,50.4 -54.02,50.4 -36.31,0 -54.2,-25.29 -54.2,-52.57 0,-27.46 17.89,-52.57 54.2,-52.57l0 0z"/>
    <polygon class="fil5" points="6802.16,3844.46 6478.42,3844.46 6438.14,4110.03 6397.85,3844.46 6074.11,3844.46 6216.83,4177.78 6074.11,4511.09 6397.85,4511.09 6438.14,4245.34 6478.42,4511.09 6802.16,4511.09 6659.62,4177.78 "/>
    <path class="fil5" d="M7143.25 3841.39c-103.7,0 -179.58,20.78 -232.33,44.08l-2.35 184.81c0,0 74.43,-43.54 189.33,-16.62 49.86,11.57 84.01,57.81 84.01,93.04 0,0 -16.44,-17.16 -80.39,-26.19 -191.68,-27.28 -303.33,64.49 -303.33,218.23 0,104.78 84.91,188.07 189.69,188.07 187.71,0 192.58,-181.56 194.03,-181.56l0 170.9 303.32 0 0 -341.27c0,-188.78 -140.01,-333.49 -341.98,-333.49l0 0zm-9.58 487.05c-35.41,0 -53.11,-24.02 -54.01,-50.4l0 -4.52c0.9,-26.37 18.6,-50.4 54.01,-50.4 36.13,0 54.02,25.29 54.02,52.75 0,27.28 -17.89,52.57 -54.02,52.57l0 0z"/>
    <path class="fil5" d="M7883.22 3839.76c-244.43,0 -343.61,159.52 -343.61,343.44 0,184.09 99.18,343.61 343.61,343.61 244.43,0 343.43,-159.52 343.43,-343.61 0,-183.92 -99,-343.44 -343.43,-343.44zm0 396.19c-36.31,0 -54.2,-25.29 -54.2,-52.75 0,-27.28 17.89,-52.58 54.2,-52.58 36.31,0 54.02,25.3 54.02,52.58 0,27.46 -17.71,52.75 -54.02,52.75z"/>
   </g>
   <path class="fil6" d="M3355.98 4876.36l127.18 0 0 -46.55 -127.18 0 0 -69.54 179.64 0 0 -98 -355.09 0 0 381.63 355.09 0 0 -98 -179.64 0 0 -69.54zm417.27 -236.46l0 159.73c0,-51.55 -36.18,-82.09 -86.18,-86.09 -95.09,-7.37 -124.18,88 -124.18,168.91 0,79.9 32.82,177.45 141.64,168.9 49.99,-3.91 68.72,-42.18 68.72,-86l0 81.19 152.64 0 0 -406.64 -152.64 0zm0 240.27c-0.45,13.37 -9.45,25.37 -27.18,25.37 -18.27,0 -27.18,-12.73 -27.18,-26.46 0,-13.82 8.91,-26.45 27.18,-26.45 17.73,0 26.73,12 27.18,25.27l0 2.27zm373.09 -169.45l0 185.82c-0.45,13.36 -9.45,25.36 -20.36,25.36 -14.09,0 -20.09,-15.45 -20.09,-45.91l0 -165.27 -152.64 0c0,0 -0.36,126.73 -0.36,164.09 0,114.09 12.18,183.63 107.27,176.27 50.09,-3.91 86.18,-41.91 86.18,-93.36l0 88.36 152.64 0 0 -335.36 -152.64 0zm363.36 141.91c0,0 44.64,-7.09 124.54,9.27l0 -111.18c-42.72,-32.45 -83.18,-44.55 -135.72,-44.55 -123,0 -172,80.28 -172,172.91 0,92.64 60.18,172.82 183.18,172.82 49.45,0 102.82,-20.64 124.54,-47.55l0 -113.81c-30,6.36 -61.54,15.09 -124.54,15.09l0 -0.09c-18.27,0 -37.36,-7.09 -37.36,-26.46 0,-19.82 19.09,-26.45 37.36,-26.45zm313.9 -145.64c-52.18,0 -90.36,10.46 -116.9,22.18l-1.19 93c0,0 37.46,-21.91 95.28,-8.36 25.09,5.82 42.27,29.09 42.27,46.82 0,0 -8.27,-8.64 -40.45,-13.18 -96.46,-13.73 -152.64,32.45 -152.64,109.81 0,52.73 42.73,94.64 95.45,94.64 94.46,0 96.91,-91.36 97.64,-91.36l0 86 152.63 0 0 -171.73c0,-95 -70.45,-167.82 -172.09,-167.82l0 0zm-4.81 245.09c-17.82,0 -26.73,-12.09 -27.18,-25.36l0 -2.27c0.45,-13.28 9.36,-25.37 27.18,-25.37 18.18,0 27.18,12.73 27.18,26.55 0,13.72 -9,26.45 -27.18,26.45l0 0zm439.63 -38c-25.37,22.18 -60.73,3.82 -60.73,-21.73l0 -100.54 60.73 0 0 -81.64 -60.73 0 0 -73.63 -49.45 0 -143.73 73.63 0 81.64 40.55 0 0 131.73c0,75.36 54.72,110.54 99.81,122.45 82.18,21.73 133.82,-29.36 133.82,-29.36l-20.27 -102.55 0 0zm200.36 129.82l0 -335.36 -152.64 0 0 335.36 152.64 0zm-76.37 -358.36c42.18,0 76.37,-20.91 76.37,-46.55 0,-25.72 -34.19,-46.54 -76.37,-46.54 -42.09,0 -76.27,20.82 -76.27,46.54 0,25.64 34.18,46.55 76.27,46.55zm325.73 23l-28.37 237.36 -28.45 -237.36 -165.18 0 87.64 335.36 211.9 0 87.64 -335.36 -165.18 0zm311.63 -1.55c-52.18,0 -90.36,10.46 -116.9,22.18l-1.19 93c0,0 37.46,-21.91 95.28,-8.36 25.09,5.82 42.27,29.09 42.27,46.82 0,0 -8.27,-8.64 -40.45,-13.18 -96.46,-13.73 -152.64,32.45 -152.64,109.81 0,52.73 42.73,94.64 95.45,94.64 94.46,0 96.91,-91.36 97.64,-91.36l0 86 152.63 0 0 -171.73c0,-95 -70.45,-167.82 -172.09,-167.82l0 0zm-4.81 245.09c-17.82,0 -26.73,-12.09 -27.18,-25.36l0 -2.27c0.45,-13.28 9.36,-25.37 27.18,-25.37 18.18,0 27.18,12.73 27.18,26.55 0,13.72 -9,26.45 -27.18,26.45l0 0z"/>
  </g>
 </g>
</svg>
